<svg xmlns="http://www.w3.org/2000/svg" viewBox="0 0 365.06 105.15"><defs><style>.cls-1,.cls-2,.cls-3{fill:#231f20;}.cls-2{font-size:37.45px;}.cls-2,.cls-3{font-family:MyriadPro-Regular, Myriad Pro;}.cls-3{font-size:60.23px;}.cls-4{letter-spacing:0.01em;}</style></defs><g id="Layer_2" data-name="Layer 2"><g id="POST_2" data-name="POST 2"><path class="cls-1" d="M95.47,97.9,82.09,69.48,68.71,97.9,66,96.6,80.71,65.25a1.52,1.52,0,0,1,2.76,0L98.23,96.6Z"/><text class="cls-2" transform="translate(2 95.78)">CRE</text><text class="cls-2" transform="translate(99.26 95.78)">TIVE</text><path class="cls-1" d="M231.5,97.9,218.12,69.48,204.74,97.9,202,96.6l14.76-31.35a1.52,1.52,0,0,1,2.76,0L234.26,96.6Z"/><text class="cls-2" transform="translate(180.03 95.78)">L</text><text class="cls-2" transform="translate(237.03 95.78)">B </text><text class="cls-3" transform="translate(0 50.41)">NO<tspan class="cls-4" x="81.13" y="0">R</tspan><tspan x="114.08" y="0" xml:space="preserve">THGR    SS</tspan></text><path class="cls-1" d="M299.79,51.45,280.77,11l-19,40.41-4.42-2.08L278.56,4.26a2.44,2.44,0,0,1,4.42,0l21.23,45.11Z"/></g></g></svg>